<svg xmlns="http://www.w3.org/2000/svg" xmlns:xlink="http://www.w3.org/1999/xlink" version="1.1" viewBox="0 0 512 512" enable-background="new 0 0 512 512" width="512px" height="512px">
  <g>
    <g fill="#231F20">
      <path d="m32.2,479.3h298.6c-4.2-58.6-43.2-110.4-98.5-130.3l-41.9,66.3c-3.8,6-13.8,6-17.6,0l-42-66.3c-55.4,20-94.4,71.7-98.6,130.3zm309.4,20.9h-320.2c-5.8,0-10.4-4.7-10.4-10.4 0-74.6 49.8-141.7 121.2-163.2 4.5-1.4 9.3,0.4 11.8,4.4l37.5,59.3 37.5-59.3c2.5-4 7.3-5.8 11.8-4.4 72.5,21.8 121.2,87.4 121.2,163.2 0,5.7-4.6,10.4-10.4,10.4z" fill="#629fd1"/>
      <path d="m181.5,189.6c-30.6,0-55.5,24.9-55.5,55.4s24.9,55.5 55.5,55.5 55.4-24.9 55.4-55.5-24.8-55.4-55.4-55.4zm0,131.8c-42.1,0-76.3-34.2-76.3-76.3 0-42.1 34.2-76.3 76.3-76.3 42.1,0 76.3,34.2 76.3,76.3 0,42-34.2,76.3-76.3,76.3z" fill="#629fd1"/>
    </g>
  </g>
</svg>
